<mxfile host="app.diagrams.net" modified="2022-11-13T04:44:08.485Z" agent="5.0 (Macintosh; Intel Mac OS X 10_14_6) AppleWebKit/537.36 (KHTML, like Gecko) Chrome/106.0.0.0 Safari/537.36" etag="l11JJk0nocauLGDDGE6_" version="20.4.1" type="github">
  <diagram id="DljnCnMRsLh3YFOeeQZI" name="第 1 页">
    <mxGraphModel dx="1577" dy="890" grid="1" gridSize="10" guides="1" tooltips="1" connect="1" arrows="1" fold="1" page="1" pageScale="1" pageWidth="827" pageHeight="1169" math="0" shadow="0">
      <root>
        <mxCell id="0" />
        <mxCell id="1" parent="0" />
        <mxCell id="Cu0Avm088U5us9jKGjH7-3" value="" style="rounded=1;whiteSpace=wrap;html=1;strokeWidth=2;fillWeight=4;hachureGap=8;hachureAngle=45;fillColor=#f5f5f5;sketch=1;fontColor=#333333;strokeColor=#666666;" vertex="1" parent="1">
          <mxGeometry x="160" y="480" width="720" height="240" as="geometry" />
        </mxCell>
        <mxCell id="Cu0Avm088U5us9jKGjH7-20" value="" style="rounded=1;whiteSpace=wrap;html=1;strokeWidth=2;fillWeight=4;hachureGap=8;hachureAngle=45;fillColor=#e1d5e7;sketch=0;shadow=1;fontSize=16;strokeColor=#9673a6;" vertex="1" parent="1">
          <mxGeometry x="320" y="530" width="530" height="160" as="geometry" />
        </mxCell>
        <mxCell id="Cu0Avm088U5us9jKGjH7-1" value="" style="rounded=1;whiteSpace=wrap;html=1;strokeWidth=2;fillWeight=4;hachureGap=8;hachureAngle=45;fillColor=#f5f5f5;sketch=1;strokeColor=#666666;shadow=1;fontColor=#333333;" vertex="1" parent="1">
          <mxGeometry x="160" y="200" width="720" height="240" as="geometry" />
        </mxCell>
        <mxCell id="Cu0Avm088U5us9jKGjH7-2" value="update student set name=&#39;ironhead&#39; where id = 1;" style="rounded=1;whiteSpace=wrap;html=1;strokeWidth=2;fillWeight=4;hachureGap=8;hachureAngle=45;fillColor=#f5f5f5;sketch=1;strokeColor=#666666;shadow=1;fontStyle=1;fontSize=17;fontColor=#333333;" vertex="1" parent="1">
          <mxGeometry x="160" y="80" width="720" height="80" as="geometry" />
        </mxCell>
        <mxCell id="Cu0Avm088U5us9jKGjH7-5" value="&lt;b&gt;&lt;font style=&quot;font-size: 15px;&quot;&gt;处理线程&lt;/font&gt;&lt;/b&gt;" style="rounded=1;whiteSpace=wrap;html=1;strokeWidth=2;fillWeight=4;hachureGap=8;hachureAngle=45;fillColor=#fad7ac;sketch=0;strokeColor=#b46504;shadow=1;" vertex="1" parent="1">
          <mxGeometry x="180" y="240" width="80" height="180" as="geometry" />
        </mxCell>
        <mxCell id="Cu0Avm088U5us9jKGjH7-6" value="" style="rounded=1;whiteSpace=wrap;html=1;strokeWidth=2;fillWeight=4;hachureGap=8;hachureAngle=45;fillColor=#fff2cc;sketch=0;strokeColor=#d6b656;" vertex="1" parent="1">
          <mxGeometry x="315" y="240" width="420" height="180" as="geometry" />
        </mxCell>
        <mxCell id="Cu0Avm088U5us9jKGjH7-7" value="后台线程" style="rounded=1;whiteSpace=wrap;html=1;strokeWidth=2;fillWeight=4;hachureGap=8;hachureAngle=45;fillColor=#ffff88;sketch=0;strokeColor=#36393d;shadow=1;fontStyle=1;fontSize=15;" vertex="1" parent="1">
          <mxGeometry x="780" y="285" width="80" height="90" as="geometry" />
        </mxCell>
        <mxCell id="Cu0Avm088U5us9jKGjH7-8" value="缓冲页" style="rounded=1;whiteSpace=wrap;html=1;strokeWidth=2;fillWeight=4;hachureGap=8;hachureAngle=45;fillColor=#d5e8d4;sketch=0;strokeColor=#82b366;shadow=1;fontSize=15;fontStyle=1" vertex="1" parent="1">
          <mxGeometry x="535" y="290" width="80" height="110" as="geometry" />
        </mxCell>
        <mxCell id="Cu0Avm088U5us9jKGjH7-9" value="缓冲页" style="rounded=1;whiteSpace=wrap;html=1;strokeWidth=2;fillWeight=4;hachureGap=8;hachureAngle=45;fillColor=#d5e8d4;sketch=0;strokeColor=#82b366;shadow=1;fontSize=15;fontStyle=1" vertex="1" parent="1">
          <mxGeometry x="435" y="290" width="80" height="110" as="geometry" />
        </mxCell>
        <mxCell id="Cu0Avm088U5us9jKGjH7-10" value="缓冲页" style="rounded=1;whiteSpace=wrap;html=1;strokeWidth=2;fillWeight=4;hachureGap=8;hachureAngle=45;fillColor=#d5e8d4;sketch=0;strokeColor=#82b366;shadow=1;fontSize=15;fontStyle=1" vertex="1" parent="1">
          <mxGeometry x="335" y="290" width="80" height="110" as="geometry" />
        </mxCell>
        <mxCell id="Cu0Avm088U5us9jKGjH7-11" value="缓冲页" style="rounded=1;whiteSpace=wrap;html=1;strokeWidth=2;fillWeight=4;hachureGap=8;hachureAngle=45;fillColor=#d5e8d4;sketch=0;strokeColor=#82b366;shadow=1;fontSize=15;fontStyle=1" vertex="1" parent="1">
          <mxGeometry x="635" y="290" width="80" height="110" as="geometry" />
        </mxCell>
        <mxCell id="Cu0Avm088U5us9jKGjH7-12" value="Innodb" style="text;html=1;align=center;verticalAlign=middle;resizable=0;points=[];autosize=1;strokeColor=none;fillColor=none;fontSize=20;fontStyle=1" vertex="1" parent="1">
          <mxGeometry x="770" y="200" width="90" height="40" as="geometry" />
        </mxCell>
        <mxCell id="Cu0Avm088U5us9jKGjH7-13" value="数据页" style="rounded=1;whiteSpace=wrap;html=1;strokeWidth=2;fillWeight=4;hachureGap=8;hachureAngle=45;fillColor=#d5e8d4;sketch=0;strokeColor=#82b366;shadow=1;fontSize=15;fontStyle=1" vertex="1" parent="1">
          <mxGeometry x="345" y="560" width="80" height="110" as="geometry" />
        </mxCell>
        <mxCell id="Cu0Avm088U5us9jKGjH7-14" value="数据页" style="rounded=1;whiteSpace=wrap;html=1;strokeWidth=2;fillWeight=4;hachureGap=8;hachureAngle=45;fillColor=#d5e8d4;sketch=0;strokeColor=#82b366;shadow=1;fontSize=15;fontStyle=1" vertex="1" parent="1">
          <mxGeometry x="445" y="560" width="80" height="110" as="geometry" />
        </mxCell>
        <mxCell id="Cu0Avm088U5us9jKGjH7-15" value="数据页" style="rounded=1;whiteSpace=wrap;html=1;strokeWidth=2;fillWeight=4;hachureGap=8;hachureAngle=45;fillColor=#d5e8d4;sketch=0;strokeColor=#82b366;shadow=1;fontSize=15;fontStyle=1" vertex="1" parent="1">
          <mxGeometry x="545" y="560" width="80" height="110" as="geometry" />
        </mxCell>
        <mxCell id="Cu0Avm088U5us9jKGjH7-16" value="数据页" style="rounded=1;whiteSpace=wrap;html=1;strokeWidth=2;fillWeight=4;hachureGap=8;hachureAngle=45;fillColor=#d5e8d4;sketch=0;strokeColor=#82b366;shadow=1;fontSize=15;fontStyle=1" vertex="1" parent="1">
          <mxGeometry x="645" y="560" width="80" height="110" as="geometry" />
        </mxCell>
        <mxCell id="Cu0Avm088U5us9jKGjH7-17" value="数据页" style="rounded=1;whiteSpace=wrap;html=1;strokeWidth=2;fillWeight=4;hachureGap=8;hachureAngle=45;fillColor=#d5e8d4;sketch=0;strokeColor=#82b366;shadow=1;fontSize=15;fontStyle=1" vertex="1" parent="1">
          <mxGeometry x="745" y="560" width="80" height="110" as="geometry" />
        </mxCell>
        <mxCell id="Cu0Avm088U5us9jKGjH7-18" value="redolog" style="rounded=1;whiteSpace=wrap;html=1;strokeWidth=2;fillWeight=4;hachureGap=8;hachureAngle=45;fillColor=#b0e3e6;sketch=0;shadow=1;fontSize=20;strokeColor=#0e8088;fontStyle=1" vertex="1" parent="1">
          <mxGeometry x="180" y="530" width="120" height="160" as="geometry" />
        </mxCell>
        <mxCell id="Cu0Avm088U5us9jKGjH7-27" value="" style="endArrow=classic;html=1;rounded=0;fontSize=15;fillColor=#d5e8d4;strokeColor=#82b366;sketch=1;shadow=1;strokeWidth=4;" edge="1" parent="1">
          <mxGeometry width="50" height="50" relative="1" as="geometry">
            <mxPoint x="460" y="520" as="sourcePoint" />
            <mxPoint x="460" y="420" as="targetPoint" />
          </mxGeometry>
        </mxCell>
        <mxCell id="Cu0Avm088U5us9jKGjH7-21" value="disk" style="text;html=1;align=center;verticalAlign=middle;resizable=0;points=[];autosize=1;strokeColor=none;fillColor=none;fontSize=20;fontStyle=1" vertex="1" parent="1">
          <mxGeometry x="800" y="480" width="60" height="40" as="geometry" />
        </mxCell>
        <mxCell id="Cu0Avm088U5us9jKGjH7-22" value="buffer pool" style="text;html=1;align=center;verticalAlign=middle;resizable=0;points=[];autosize=1;strokeColor=none;fillColor=none;fontSize=20;fontStyle=1" vertex="1" parent="1">
          <mxGeometry x="595" y="240" width="130" height="40" as="geometry" />
        </mxCell>
        <mxCell id="Cu0Avm088U5us9jKGjH7-24" value="Server" style="text;html=1;align=center;verticalAlign=middle;resizable=0;points=[];autosize=1;strokeColor=none;fillColor=none;fontSize=20;fontStyle=1" vertex="1" parent="1">
          <mxGeometry x="770" y="80" width="90" height="40" as="geometry" />
        </mxCell>
        <mxCell id="Cu0Avm088U5us9jKGjH7-26" value="" style="endArrow=classic;html=1;rounded=0;fontSize=15;strokeWidth=4;fillColor=#b0e3e6;strokeColor=#0e8088;sketch=1;shadow=1;" edge="1" parent="1">
          <mxGeometry width="50" height="50" relative="1" as="geometry">
            <mxPoint x="208" y="170" as="sourcePoint" />
            <mxPoint x="208" y="240" as="targetPoint" />
          </mxGeometry>
        </mxCell>
        <mxCell id="Cu0Avm088U5us9jKGjH7-30" value="" style="endArrow=classic;html=1;rounded=0;fontSize=15;fillColor=#b0e3e6;strokeColor=#0e8088;strokeWidth=4;sketch=1;shadow=1;" edge="1" parent="1">
          <mxGeometry width="50" height="50" relative="1" as="geometry">
            <mxPoint x="210" y="430" as="sourcePoint" />
            <mxPoint x="210" y="520" as="targetPoint" />
          </mxGeometry>
        </mxCell>
        <mxCell id="Cu0Avm088U5us9jKGjH7-33" value="" style="endArrow=classic;html=1;rounded=0;fontSize=20;fillColor=#d5e8d4;strokeColor=#82b366;strokeWidth=4;sketch=1;shadow=1;entryX=0.094;entryY=-0.016;entryDx=0;entryDy=0;entryPerimeter=0;" edge="1" parent="1" target="Cu0Avm088U5us9jKGjH7-20">
          <mxGeometry width="50" height="50" relative="1" as="geometry">
            <mxPoint x="240" y="430" as="sourcePoint" />
            <mxPoint x="370" y="460" as="targetPoint" />
            <Array as="points">
              <mxPoint x="240" y="500" />
              <mxPoint x="370" y="500" />
            </Array>
          </mxGeometry>
        </mxCell>
        <mxCell id="Cu0Avm088U5us9jKGjH7-78" value="Innodb" style="text;html=1;align=center;verticalAlign=middle;resizable=0;points=[];autosize=1;strokeColor=none;fillColor=none;fontSize=20;fontStyle=1" vertex="1" parent="1">
          <mxGeometry x="940" y="1020" width="90" height="40" as="geometry" />
        </mxCell>
        <mxCell id="Cu0Avm088U5us9jKGjH7-86" value="disk" style="text;html=1;align=center;verticalAlign=middle;resizable=0;points=[];autosize=1;strokeColor=none;fillColor=none;fontSize=20;fontStyle=1" vertex="1" parent="1">
          <mxGeometry x="955" y="1300" width="60" height="40" as="geometry" />
        </mxCell>
        <mxCell id="Cu0Avm088U5us9jKGjH7-88" value="Server" style="text;html=1;align=center;verticalAlign=middle;resizable=0;points=[];autosize=1;strokeColor=none;fillColor=none;fontSize=20;fontStyle=1" vertex="1" parent="1">
          <mxGeometry x="940" y="815" width="90" height="40" as="geometry" />
        </mxCell>
        <mxCell id="Cu0Avm088U5us9jKGjH7-92" value="" style="shape=curlyBracket;whiteSpace=wrap;html=1;rounded=1;flipH=1;shadow=1;sketch=1;fontSize=15;" vertex="1" parent="1">
          <mxGeometry x="920" y="920" width="20" height="240" as="geometry" />
        </mxCell>
        <mxCell id="Cu0Avm088U5us9jKGjH7-93" value="" style="shape=curlyBracket;whiteSpace=wrap;html=1;rounded=1;flipH=1;shadow=1;sketch=1;fontSize=15;" vertex="1" parent="1">
          <mxGeometry x="920" y="1210" width="20" height="230" as="geometry" />
        </mxCell>
        <mxCell id="Cu0Avm088U5us9jKGjH7-94" value="" style="shape=curlyBracket;whiteSpace=wrap;html=1;rounded=1;flipH=1;shadow=1;sketch=1;fontSize=15;" vertex="1" parent="1">
          <mxGeometry x="920" y="800" width="20" height="70" as="geometry" />
        </mxCell>
        <mxCell id="Cu0Avm088U5us9jKGjH7-146" value="" style="rounded=1;whiteSpace=wrap;html=1;strokeWidth=2;fillWeight=4;hachureGap=8;hachureAngle=45;fillColor=#f5f5f5;sketch=1;fontColor=#333333;strokeColor=#666666;" vertex="1" parent="1">
          <mxGeometry x="160" y="1200" width="720" height="240" as="geometry" />
        </mxCell>
        <mxCell id="Cu0Avm088U5us9jKGjH7-147" value="" style="rounded=1;whiteSpace=wrap;html=1;strokeWidth=2;fillWeight=4;hachureGap=8;hachureAngle=45;fillColor=#e1d5e7;sketch=0;shadow=1;fontSize=16;strokeColor=#9673a6;" vertex="1" parent="1">
          <mxGeometry x="320" y="1250" width="530" height="160" as="geometry" />
        </mxCell>
        <mxCell id="Cu0Avm088U5us9jKGjH7-148" value="" style="rounded=1;whiteSpace=wrap;html=1;strokeWidth=2;fillWeight=4;hachureGap=8;hachureAngle=45;fillColor=#f5f5f5;sketch=1;strokeColor=#666666;shadow=1;fontColor=#333333;" vertex="1" parent="1">
          <mxGeometry x="160" y="920" width="720" height="240" as="geometry" />
        </mxCell>
        <mxCell id="Cu0Avm088U5us9jKGjH7-149" value="update student set name=&#39;ironhead&#39; where id = 1;" style="rounded=1;whiteSpace=wrap;html=1;strokeWidth=2;fillWeight=4;hachureGap=8;hachureAngle=45;fillColor=#f5f5f5;sketch=1;strokeColor=#666666;shadow=1;fontStyle=1;fontSize=17;fontColor=#333333;" vertex="1" parent="1">
          <mxGeometry x="160" y="800" width="720" height="80" as="geometry" />
        </mxCell>
        <mxCell id="Cu0Avm088U5us9jKGjH7-150" value="&lt;b&gt;&lt;font style=&quot;font-size: 15px;&quot;&gt;处理线程&lt;/font&gt;&lt;/b&gt;" style="rounded=1;whiteSpace=wrap;html=1;strokeWidth=2;fillWeight=4;hachureGap=8;hachureAngle=45;fillColor=#fad7ac;sketch=0;strokeColor=#b46504;shadow=1;" vertex="1" parent="1">
          <mxGeometry x="180" y="960" width="80" height="180" as="geometry" />
        </mxCell>
        <mxCell id="Cu0Avm088U5us9jKGjH7-151" value="" style="rounded=1;whiteSpace=wrap;html=1;strokeWidth=2;fillWeight=4;hachureGap=8;hachureAngle=45;fillColor=#fff2cc;sketch=0;strokeColor=#d6b656;" vertex="1" parent="1">
          <mxGeometry x="315" y="960" width="420" height="180" as="geometry" />
        </mxCell>
        <mxCell id="Cu0Avm088U5us9jKGjH7-152" value="后台线程" style="rounded=1;whiteSpace=wrap;html=1;strokeWidth=2;fillWeight=4;hachureGap=8;hachureAngle=45;fillColor=#ffff88;sketch=0;strokeColor=#36393d;shadow=1;fontStyle=1;fontSize=15;" vertex="1" parent="1">
          <mxGeometry x="780" y="1005" width="80" height="90" as="geometry" />
        </mxCell>
        <mxCell id="Cu0Avm088U5us9jKGjH7-153" value="缓冲页" style="rounded=1;whiteSpace=wrap;html=1;strokeWidth=2;fillWeight=4;hachureGap=8;hachureAngle=45;fillColor=#d5e8d4;sketch=0;strokeColor=#82b366;shadow=1;fontSize=15;fontStyle=1" vertex="1" parent="1">
          <mxGeometry x="535" y="1010" width="80" height="110" as="geometry" />
        </mxCell>
        <mxCell id="Cu0Avm088U5us9jKGjH7-154" value="脏页" style="rounded=1;whiteSpace=wrap;html=1;strokeWidth=2;fillWeight=4;hachureGap=8;hachureAngle=45;fillColor=#f8cecc;sketch=0;strokeColor=#b85450;shadow=1;fontSize=15;fontStyle=1" vertex="1" parent="1">
          <mxGeometry x="435" y="1010" width="80" height="110" as="geometry" />
        </mxCell>
        <mxCell id="Cu0Avm088U5us9jKGjH7-155" value="缓冲页" style="rounded=1;whiteSpace=wrap;html=1;strokeWidth=2;fillWeight=4;hachureGap=8;hachureAngle=45;fillColor=#d5e8d4;sketch=0;strokeColor=#82b366;shadow=1;fontSize=15;fontStyle=1" vertex="1" parent="1">
          <mxGeometry x="335" y="1010" width="80" height="110" as="geometry" />
        </mxCell>
        <mxCell id="Cu0Avm088U5us9jKGjH7-156" value="缓冲页" style="rounded=1;whiteSpace=wrap;html=1;strokeWidth=2;fillWeight=4;hachureGap=8;hachureAngle=45;fillColor=#d5e8d4;sketch=0;strokeColor=#82b366;shadow=1;fontSize=15;fontStyle=1" vertex="1" parent="1">
          <mxGeometry x="635" y="1010" width="80" height="110" as="geometry" />
        </mxCell>
        <mxCell id="Cu0Avm088U5us9jKGjH7-157" value="Innodb" style="text;html=1;align=center;verticalAlign=middle;resizable=0;points=[];autosize=1;strokeColor=none;fillColor=none;fontSize=20;fontStyle=1" vertex="1" parent="1">
          <mxGeometry x="770" y="920" width="90" height="40" as="geometry" />
        </mxCell>
        <mxCell id="Cu0Avm088U5us9jKGjH7-158" value="数据页" style="rounded=1;whiteSpace=wrap;html=1;strokeWidth=2;fillWeight=4;hachureGap=8;hachureAngle=45;fillColor=#d5e8d4;sketch=0;strokeColor=#82b366;shadow=1;fontSize=15;fontStyle=1" vertex="1" parent="1">
          <mxGeometry x="345" y="1280" width="80" height="110" as="geometry" />
        </mxCell>
        <mxCell id="Cu0Avm088U5us9jKGjH7-159" value="数据页" style="rounded=1;whiteSpace=wrap;html=1;strokeWidth=2;fillWeight=4;hachureGap=8;hachureAngle=45;fillColor=#d5e8d4;sketch=0;strokeColor=#82b366;shadow=1;fontSize=15;fontStyle=1" vertex="1" parent="1">
          <mxGeometry x="445" y="1280" width="80" height="110" as="geometry" />
        </mxCell>
        <mxCell id="Cu0Avm088U5us9jKGjH7-160" value="数据页" style="rounded=1;whiteSpace=wrap;html=1;strokeWidth=2;fillWeight=4;hachureGap=8;hachureAngle=45;fillColor=#d5e8d4;sketch=0;strokeColor=#82b366;shadow=1;fontSize=15;fontStyle=1" vertex="1" parent="1">
          <mxGeometry x="545" y="1280" width="80" height="110" as="geometry" />
        </mxCell>
        <mxCell id="Cu0Avm088U5us9jKGjH7-161" value="数据页" style="rounded=1;whiteSpace=wrap;html=1;strokeWidth=2;fillWeight=4;hachureGap=8;hachureAngle=45;fillColor=#d5e8d4;sketch=0;strokeColor=#82b366;shadow=1;fontSize=15;fontStyle=1" vertex="1" parent="1">
          <mxGeometry x="645" y="1280" width="80" height="110" as="geometry" />
        </mxCell>
        <mxCell id="Cu0Avm088U5us9jKGjH7-162" value="数据页" style="rounded=1;whiteSpace=wrap;html=1;strokeWidth=2;fillWeight=4;hachureGap=8;hachureAngle=45;fillColor=#d5e8d4;sketch=0;strokeColor=#82b366;shadow=1;fontSize=15;fontStyle=1" vertex="1" parent="1">
          <mxGeometry x="745" y="1280" width="80" height="110" as="geometry" />
        </mxCell>
        <mxCell id="Cu0Avm088U5us9jKGjH7-163" value="redolog" style="rounded=1;whiteSpace=wrap;html=1;strokeWidth=2;fillWeight=4;hachureGap=8;hachureAngle=45;fillColor=#b0e3e6;sketch=0;shadow=1;fontSize=20;strokeColor=#0e8088;fontStyle=1" vertex="1" parent="1">
          <mxGeometry x="180" y="1250" width="120" height="160" as="geometry" />
        </mxCell>
        <mxCell id="Cu0Avm088U5us9jKGjH7-164" value="" style="endArrow=classic;html=1;rounded=0;fontSize=15;fillColor=#d5e8d4;strokeColor=#82b366;sketch=1;shadow=1;strokeWidth=4;" edge="1" parent="1">
          <mxGeometry width="50" height="50" relative="1" as="geometry">
            <mxPoint x="460" y="1240" as="sourcePoint" />
            <mxPoint x="460" y="1140" as="targetPoint" />
          </mxGeometry>
        </mxCell>
        <mxCell id="Cu0Avm088U5us9jKGjH7-165" value="disk" style="text;html=1;align=center;verticalAlign=middle;resizable=0;points=[];autosize=1;strokeColor=none;fillColor=none;fontSize=20;fontStyle=1" vertex="1" parent="1">
          <mxGeometry x="800" y="1200" width="60" height="40" as="geometry" />
        </mxCell>
        <mxCell id="Cu0Avm088U5us9jKGjH7-166" value="buffer pool" style="text;html=1;align=center;verticalAlign=middle;resizable=0;points=[];autosize=1;strokeColor=none;fillColor=none;fontSize=20;fontStyle=1" vertex="1" parent="1">
          <mxGeometry x="595" y="960" width="130" height="40" as="geometry" />
        </mxCell>
        <mxCell id="Cu0Avm088U5us9jKGjH7-167" value="Server" style="text;html=1;align=center;verticalAlign=middle;resizable=0;points=[];autosize=1;strokeColor=none;fillColor=none;fontSize=20;fontStyle=1" vertex="1" parent="1">
          <mxGeometry x="770" y="800" width="90" height="40" as="geometry" />
        </mxCell>
        <mxCell id="Cu0Avm088U5us9jKGjH7-168" value="" style="endArrow=classic;html=1;rounded=0;fontSize=15;strokeWidth=4;fillColor=#b0e3e6;strokeColor=#0e8088;sketch=1;shadow=1;" edge="1" parent="1">
          <mxGeometry width="50" height="50" relative="1" as="geometry">
            <mxPoint x="208" y="890" as="sourcePoint" />
            <mxPoint x="208" y="960" as="targetPoint" />
          </mxGeometry>
        </mxCell>
        <mxCell id="Cu0Avm088U5us9jKGjH7-169" value="" style="endArrow=classic;html=1;rounded=0;fontSize=15;fillColor=#b0e3e6;strokeColor=#0e8088;strokeWidth=4;sketch=1;shadow=1;" edge="1" parent="1">
          <mxGeometry width="50" height="50" relative="1" as="geometry">
            <mxPoint x="210" y="1150" as="sourcePoint" />
            <mxPoint x="210" y="1240" as="targetPoint" />
          </mxGeometry>
        </mxCell>
        <mxCell id="Cu0Avm088U5us9jKGjH7-170" value="" style="endArrow=classic;html=1;rounded=0;fontSize=20;fillColor=#d5e8d4;strokeColor=#82b366;strokeWidth=4;sketch=1;shadow=1;entryX=0.094;entryY=-0.016;entryDx=0;entryDy=0;entryPerimeter=0;" edge="1" parent="1" target="Cu0Avm088U5us9jKGjH7-147">
          <mxGeometry width="50" height="50" relative="1" as="geometry">
            <mxPoint x="240" y="1150" as="sourcePoint" />
            <mxPoint x="370" y="1180" as="targetPoint" />
            <Array as="points">
              <mxPoint x="240" y="1220" />
              <mxPoint x="370" y="1220" />
            </Array>
          </mxGeometry>
        </mxCell>
        <mxCell id="Cu0Avm088U5us9jKGjH7-172" value="" style="endArrow=classic;html=1;rounded=0;fontSize=15;strokeWidth=4;fillColor=#f8cecc;strokeColor=#b85450;sketch=1;shadow=1;" edge="1" parent="1">
          <mxGeometry width="50" height="50" relative="1" as="geometry">
            <mxPoint x="240" y="890" as="sourcePoint" />
            <mxPoint x="240" y="960" as="targetPoint" />
          </mxGeometry>
        </mxCell>
        <mxCell id="Cu0Avm088U5us9jKGjH7-173" value="" style="endArrow=classic;html=1;rounded=0;fontSize=15;strokeWidth=4;fillColor=#f8cecc;strokeColor=#b85450;sketch=1;shadow=1;exitX=1;exitY=0.5;exitDx=0;exitDy=0;entryX=0;entryY=0.5;entryDx=0;entryDy=0;" edge="1" parent="1" source="Cu0Avm088U5us9jKGjH7-150" target="Cu0Avm088U5us9jKGjH7-151">
          <mxGeometry width="50" height="50" relative="1" as="geometry">
            <mxPoint x="299.51" y="1020" as="sourcePoint" />
            <mxPoint x="299.51" y="1090" as="targetPoint" />
          </mxGeometry>
        </mxCell>
        <mxCell id="Cu0Avm088U5us9jKGjH7-174" value="Innodb" style="text;html=1;align=center;verticalAlign=middle;resizable=0;points=[];autosize=1;strokeColor=none;fillColor=none;fontSize=20;fontStyle=1" vertex="1" parent="1">
          <mxGeometry x="940" y="1740" width="90" height="40" as="geometry" />
        </mxCell>
        <mxCell id="Cu0Avm088U5us9jKGjH7-175" value="disk" style="text;html=1;align=center;verticalAlign=middle;resizable=0;points=[];autosize=1;strokeColor=none;fillColor=none;fontSize=20;fontStyle=1" vertex="1" parent="1">
          <mxGeometry x="955" y="2020" width="60" height="40" as="geometry" />
        </mxCell>
        <mxCell id="Cu0Avm088U5us9jKGjH7-176" value="Server" style="text;html=1;align=center;verticalAlign=middle;resizable=0;points=[];autosize=1;strokeColor=none;fillColor=none;fontSize=20;fontStyle=1" vertex="1" parent="1">
          <mxGeometry x="940" y="1535" width="90" height="40" as="geometry" />
        </mxCell>
        <mxCell id="Cu0Avm088U5us9jKGjH7-177" value="" style="shape=curlyBracket;whiteSpace=wrap;html=1;rounded=1;flipH=1;shadow=1;sketch=1;fontSize=15;" vertex="1" parent="1">
          <mxGeometry x="920" y="1640" width="20" height="240" as="geometry" />
        </mxCell>
        <mxCell id="Cu0Avm088U5us9jKGjH7-178" value="" style="shape=curlyBracket;whiteSpace=wrap;html=1;rounded=1;flipH=1;shadow=1;sketch=1;fontSize=15;" vertex="1" parent="1">
          <mxGeometry x="920" y="1930" width="20" height="230" as="geometry" />
        </mxCell>
        <mxCell id="Cu0Avm088U5us9jKGjH7-179" value="" style="shape=curlyBracket;whiteSpace=wrap;html=1;rounded=1;flipH=1;shadow=1;sketch=1;fontSize=15;" vertex="1" parent="1">
          <mxGeometry x="920" y="1520" width="20" height="70" as="geometry" />
        </mxCell>
        <mxCell id="Cu0Avm088U5us9jKGjH7-180" value="" style="rounded=1;whiteSpace=wrap;html=1;strokeWidth=2;fillWeight=4;hachureGap=8;hachureAngle=45;fillColor=#f5f5f5;sketch=1;fontColor=#333333;strokeColor=#666666;" vertex="1" parent="1">
          <mxGeometry x="160" y="1920" width="720" height="240" as="geometry" />
        </mxCell>
        <mxCell id="Cu0Avm088U5us9jKGjH7-181" value="" style="rounded=1;whiteSpace=wrap;html=1;strokeWidth=2;fillWeight=4;hachureGap=8;hachureAngle=45;fillColor=#e1d5e7;sketch=0;shadow=1;fontSize=16;strokeColor=#9673a6;" vertex="1" parent="1">
          <mxGeometry x="320" y="1970" width="530" height="160" as="geometry" />
        </mxCell>
        <mxCell id="Cu0Avm088U5us9jKGjH7-182" value="" style="rounded=1;whiteSpace=wrap;html=1;strokeWidth=2;fillWeight=4;hachureGap=8;hachureAngle=45;fillColor=#f5f5f5;sketch=1;strokeColor=#666666;shadow=1;fontColor=#333333;" vertex="1" parent="1">
          <mxGeometry x="160" y="1640" width="720" height="240" as="geometry" />
        </mxCell>
        <mxCell id="Cu0Avm088U5us9jKGjH7-183" value="update student set name=&#39;ironhead&#39; where id = 1;" style="rounded=1;whiteSpace=wrap;html=1;strokeWidth=2;fillWeight=4;hachureGap=8;hachureAngle=45;fillColor=#f5f5f5;sketch=1;strokeColor=#666666;shadow=1;fontStyle=1;fontSize=17;fontColor=#333333;" vertex="1" parent="1">
          <mxGeometry x="160" y="1520" width="720" height="80" as="geometry" />
        </mxCell>
        <mxCell id="Cu0Avm088U5us9jKGjH7-184" value="&lt;b&gt;&lt;font style=&quot;font-size: 15px;&quot;&gt;处理线程&lt;/font&gt;&lt;/b&gt;" style="rounded=1;whiteSpace=wrap;html=1;strokeWidth=2;fillWeight=4;hachureGap=8;hachureAngle=45;fillColor=#fad7ac;sketch=0;strokeColor=#b46504;shadow=1;" vertex="1" parent="1">
          <mxGeometry x="180" y="1680" width="80" height="180" as="geometry" />
        </mxCell>
        <mxCell id="Cu0Avm088U5us9jKGjH7-185" value="" style="rounded=1;whiteSpace=wrap;html=1;strokeWidth=2;fillWeight=4;hachureGap=8;hachureAngle=45;fillColor=#fff2cc;sketch=0;strokeColor=#d6b656;" vertex="1" parent="1">
          <mxGeometry x="315" y="1680" width="420" height="180" as="geometry" />
        </mxCell>
        <mxCell id="Cu0Avm088U5us9jKGjH7-186" value="后台线程" style="rounded=1;whiteSpace=wrap;html=1;strokeWidth=2;fillWeight=4;hachureGap=8;hachureAngle=45;fillColor=#ffff88;sketch=0;strokeColor=#36393d;shadow=1;fontStyle=1;fontSize=15;" vertex="1" parent="1">
          <mxGeometry x="780" y="1725" width="80" height="90" as="geometry" />
        </mxCell>
        <mxCell id="Cu0Avm088U5us9jKGjH7-187" value="缓冲页" style="rounded=1;whiteSpace=wrap;html=1;strokeWidth=2;fillWeight=4;hachureGap=8;hachureAngle=45;fillColor=#d5e8d4;sketch=0;strokeColor=#82b366;shadow=1;fontSize=15;fontStyle=1" vertex="1" parent="1">
          <mxGeometry x="535" y="1730" width="80" height="110" as="geometry" />
        </mxCell>
        <mxCell id="Cu0Avm088U5us9jKGjH7-188" value="脏页" style="rounded=1;whiteSpace=wrap;html=1;strokeWidth=2;fillWeight=4;hachureGap=8;hachureAngle=45;fillColor=#f8cecc;sketch=0;strokeColor=#b85450;shadow=1;fontSize=15;fontStyle=1" vertex="1" parent="1">
          <mxGeometry x="435" y="1730" width="80" height="110" as="geometry" />
        </mxCell>
        <mxCell id="Cu0Avm088U5us9jKGjH7-189" value="缓冲页" style="rounded=1;whiteSpace=wrap;html=1;strokeWidth=2;fillWeight=4;hachureGap=8;hachureAngle=45;fillColor=#d5e8d4;sketch=0;strokeColor=#82b366;shadow=1;fontSize=15;fontStyle=1" vertex="1" parent="1">
          <mxGeometry x="335" y="1730" width="80" height="110" as="geometry" />
        </mxCell>
        <mxCell id="Cu0Avm088U5us9jKGjH7-190" value="缓冲页" style="rounded=1;whiteSpace=wrap;html=1;strokeWidth=2;fillWeight=4;hachureGap=8;hachureAngle=45;fillColor=#d5e8d4;sketch=0;strokeColor=#82b366;shadow=1;fontSize=15;fontStyle=1" vertex="1" parent="1">
          <mxGeometry x="635" y="1730" width="80" height="110" as="geometry" />
        </mxCell>
        <mxCell id="Cu0Avm088U5us9jKGjH7-191" value="Innodb" style="text;html=1;align=center;verticalAlign=middle;resizable=0;points=[];autosize=1;strokeColor=none;fillColor=none;fontSize=20;fontStyle=1" vertex="1" parent="1">
          <mxGeometry x="770" y="1640" width="90" height="40" as="geometry" />
        </mxCell>
        <mxCell id="Cu0Avm088U5us9jKGjH7-192" value="数据页" style="rounded=1;whiteSpace=wrap;html=1;strokeWidth=2;fillWeight=4;hachureGap=8;hachureAngle=45;fillColor=#d5e8d4;sketch=0;strokeColor=#82b366;shadow=1;fontSize=15;fontStyle=1" vertex="1" parent="1">
          <mxGeometry x="345" y="2000" width="80" height="110" as="geometry" />
        </mxCell>
        <mxCell id="Cu0Avm088U5us9jKGjH7-193" value="数据页" style="rounded=1;whiteSpace=wrap;html=1;strokeWidth=2;fillWeight=4;hachureGap=8;hachureAngle=45;fillColor=#d5e8d4;sketch=0;strokeColor=#82b366;shadow=1;fontSize=15;fontStyle=1" vertex="1" parent="1">
          <mxGeometry x="445" y="2000" width="80" height="110" as="geometry" />
        </mxCell>
        <mxCell id="Cu0Avm088U5us9jKGjH7-194" value="数据页" style="rounded=1;whiteSpace=wrap;html=1;strokeWidth=2;fillWeight=4;hachureGap=8;hachureAngle=45;fillColor=#d5e8d4;sketch=0;strokeColor=#82b366;shadow=1;fontSize=15;fontStyle=1" vertex="1" parent="1">
          <mxGeometry x="545" y="2000" width="80" height="110" as="geometry" />
        </mxCell>
        <mxCell id="Cu0Avm088U5us9jKGjH7-195" value="数据页" style="rounded=1;whiteSpace=wrap;html=1;strokeWidth=2;fillWeight=4;hachureGap=8;hachureAngle=45;fillColor=#d5e8d4;sketch=0;strokeColor=#82b366;shadow=1;fontSize=15;fontStyle=1" vertex="1" parent="1">
          <mxGeometry x="645" y="2000" width="80" height="110" as="geometry" />
        </mxCell>
        <mxCell id="Cu0Avm088U5us9jKGjH7-196" value="数据页" style="rounded=1;whiteSpace=wrap;html=1;strokeWidth=2;fillWeight=4;hachureGap=8;hachureAngle=45;fillColor=#d5e8d4;sketch=0;strokeColor=#82b366;shadow=1;fontSize=15;fontStyle=1" vertex="1" parent="1">
          <mxGeometry x="745" y="2000" width="80" height="110" as="geometry" />
        </mxCell>
        <mxCell id="Cu0Avm088U5us9jKGjH7-197" value="redolog" style="rounded=1;whiteSpace=wrap;html=1;strokeWidth=2;fillWeight=4;hachureGap=8;hachureAngle=45;fillColor=#b0e3e6;sketch=0;shadow=1;fontSize=20;strokeColor=#0e8088;fontStyle=1" vertex="1" parent="1">
          <mxGeometry x="180" y="1970" width="120" height="160" as="geometry" />
        </mxCell>
        <mxCell id="Cu0Avm088U5us9jKGjH7-198" value="" style="endArrow=classic;html=1;rounded=0;fontSize=15;fillColor=#d5e8d4;strokeColor=#82b366;sketch=1;shadow=1;strokeWidth=4;" edge="1" parent="1">
          <mxGeometry width="50" height="50" relative="1" as="geometry">
            <mxPoint x="459.9999999999998" y="1960" as="sourcePoint" />
            <mxPoint x="459.9999999999998" y="1860" as="targetPoint" />
          </mxGeometry>
        </mxCell>
        <mxCell id="Cu0Avm088U5us9jKGjH7-199" value="disk" style="text;html=1;align=center;verticalAlign=middle;resizable=0;points=[];autosize=1;strokeColor=none;fillColor=none;fontSize=20;fontStyle=1" vertex="1" parent="1">
          <mxGeometry x="800" y="1920" width="60" height="40" as="geometry" />
        </mxCell>
        <mxCell id="Cu0Avm088U5us9jKGjH7-200" value="buffer pool" style="text;html=1;align=center;verticalAlign=middle;resizable=0;points=[];autosize=1;strokeColor=none;fillColor=none;fontSize=20;fontStyle=1" vertex="1" parent="1">
          <mxGeometry x="595" y="1680" width="130" height="40" as="geometry" />
        </mxCell>
        <mxCell id="Cu0Avm088U5us9jKGjH7-201" value="Server" style="text;html=1;align=center;verticalAlign=middle;resizable=0;points=[];autosize=1;strokeColor=none;fillColor=none;fontSize=20;fontStyle=1" vertex="1" parent="1">
          <mxGeometry x="770" y="1520" width="90" height="40" as="geometry" />
        </mxCell>
        <mxCell id="Cu0Avm088U5us9jKGjH7-202" value="" style="endArrow=classic;html=1;rounded=0;fontSize=15;strokeWidth=4;fillColor=#b0e3e6;strokeColor=#0e8088;sketch=1;shadow=1;" edge="1" parent="1">
          <mxGeometry width="50" height="50" relative="1" as="geometry">
            <mxPoint x="208" y="1610" as="sourcePoint" />
            <mxPoint x="208" y="1680" as="targetPoint" />
          </mxGeometry>
        </mxCell>
        <mxCell id="Cu0Avm088U5us9jKGjH7-203" value="" style="endArrow=classic;html=1;rounded=0;fontSize=15;fillColor=#b0e3e6;strokeColor=#0e8088;strokeWidth=4;sketch=1;shadow=1;" edge="1" parent="1">
          <mxGeometry width="50" height="50" relative="1" as="geometry">
            <mxPoint x="209.99999999999977" y="1870" as="sourcePoint" />
            <mxPoint x="209.99999999999977" y="1960" as="targetPoint" />
          </mxGeometry>
        </mxCell>
        <mxCell id="Cu0Avm088U5us9jKGjH7-204" value="" style="endArrow=classic;html=1;rounded=0;fontSize=20;fillColor=#d5e8d4;strokeColor=#82b366;strokeWidth=4;sketch=1;shadow=1;entryX=0.094;entryY=-0.016;entryDx=0;entryDy=0;entryPerimeter=0;" edge="1" parent="1" target="Cu0Avm088U5us9jKGjH7-181">
          <mxGeometry width="50" height="50" relative="1" as="geometry">
            <mxPoint x="239.99999999999977" y="1870" as="sourcePoint" />
            <mxPoint x="370" y="1900" as="targetPoint" />
            <Array as="points">
              <mxPoint x="240" y="1940" />
              <mxPoint x="370" y="1940" />
            </Array>
          </mxGeometry>
        </mxCell>
        <mxCell id="Cu0Avm088U5us9jKGjH7-205" value="" style="endArrow=classic;html=1;rounded=0;fontSize=15;strokeWidth=4;fillColor=#f8cecc;strokeColor=#b85450;sketch=1;shadow=1;" edge="1" parent="1">
          <mxGeometry width="50" height="50" relative="1" as="geometry">
            <mxPoint x="239.99999999999977" y="1610" as="sourcePoint" />
            <mxPoint x="239.99999999999977" y="1680" as="targetPoint" />
          </mxGeometry>
        </mxCell>
        <mxCell id="Cu0Avm088U5us9jKGjH7-206" value="" style="endArrow=classic;html=1;rounded=0;fontSize=15;strokeWidth=4;fillColor=#f8cecc;strokeColor=#b85450;sketch=1;shadow=1;exitX=1;exitY=0.5;exitDx=0;exitDy=0;entryX=0;entryY=0.5;entryDx=0;entryDy=0;" edge="1" parent="1" source="Cu0Avm088U5us9jKGjH7-184" target="Cu0Avm088U5us9jKGjH7-185">
          <mxGeometry width="50" height="50" relative="1" as="geometry">
            <mxPoint x="299.51" y="1740" as="sourcePoint" />
            <mxPoint x="299.51" y="1810" as="targetPoint" />
          </mxGeometry>
        </mxCell>
        <mxCell id="Cu0Avm088U5us9jKGjH7-213" value="Innodb" style="text;html=1;align=center;verticalAlign=middle;resizable=0;points=[];autosize=1;strokeColor=none;fillColor=none;fontSize=20;fontStyle=1" vertex="1" parent="1">
          <mxGeometry x="940" y="300" width="90" height="40" as="geometry" />
        </mxCell>
        <mxCell id="Cu0Avm088U5us9jKGjH7-214" value="disk" style="text;html=1;align=center;verticalAlign=middle;resizable=0;points=[];autosize=1;strokeColor=none;fillColor=none;fontSize=20;fontStyle=1" vertex="1" parent="1">
          <mxGeometry x="955" y="580" width="60" height="40" as="geometry" />
        </mxCell>
        <mxCell id="Cu0Avm088U5us9jKGjH7-215" value="Server" style="text;html=1;align=center;verticalAlign=middle;resizable=0;points=[];autosize=1;strokeColor=none;fillColor=none;fontSize=20;fontStyle=1" vertex="1" parent="1">
          <mxGeometry x="940" y="95" width="90" height="40" as="geometry" />
        </mxCell>
        <mxCell id="Cu0Avm088U5us9jKGjH7-216" value="" style="shape=curlyBracket;whiteSpace=wrap;html=1;rounded=1;flipH=1;shadow=1;sketch=1;fontSize=15;" vertex="1" parent="1">
          <mxGeometry x="920" y="200" width="20" height="240" as="geometry" />
        </mxCell>
        <mxCell id="Cu0Avm088U5us9jKGjH7-217" value="" style="shape=curlyBracket;whiteSpace=wrap;html=1;rounded=1;flipH=1;shadow=1;sketch=1;fontSize=15;" vertex="1" parent="1">
          <mxGeometry x="920" y="490" width="20" height="230" as="geometry" />
        </mxCell>
        <mxCell id="Cu0Avm088U5us9jKGjH7-218" value="" style="shape=curlyBracket;whiteSpace=wrap;html=1;rounded=1;flipH=1;shadow=1;sketch=1;fontSize=15;" vertex="1" parent="1">
          <mxGeometry x="920" y="80" width="20" height="70" as="geometry" />
        </mxCell>
        <mxCell id="Cu0Avm088U5us9jKGjH7-219" value="" style="endArrow=classic;html=1;rounded=0;shadow=1;sketch=1;strokeColor=#6c8ebf;strokeWidth=4;fontSize=15;exitX=1;exitY=0.5;exitDx=0;exitDy=0;entryX=0;entryY=0.5;entryDx=0;entryDy=0;fillColor=#dae8fc;" edge="1" parent="1" source="Cu0Avm088U5us9jKGjH7-185" target="Cu0Avm088U5us9jKGjH7-186">
          <mxGeometry width="50" height="50" relative="1" as="geometry">
            <mxPoint x="1120" y="1670" as="sourcePoint" />
            <mxPoint x="1170" y="1620" as="targetPoint" />
          </mxGeometry>
        </mxCell>
        <mxCell id="Cu0Avm088U5us9jKGjH7-220" value="" style="endArrow=classic;html=1;rounded=0;shadow=1;sketch=1;strokeColor=#6c8ebf;strokeWidth=4;fontSize=15;exitX=0.452;exitY=1.006;exitDx=0;exitDy=0;exitPerimeter=0;fillColor=#dae8fc;" edge="1" parent="1" source="Cu0Avm088U5us9jKGjH7-186">
          <mxGeometry width="50" height="50" relative="1" as="geometry">
            <mxPoint x="960" y="1890" as="sourcePoint" />
            <mxPoint x="760" y="1970" as="targetPoint" />
            <Array as="points">
              <mxPoint x="816" y="1860" />
              <mxPoint x="760" y="1860" />
            </Array>
          </mxGeometry>
        </mxCell>
        <mxCell id="Cu0Avm088U5us9jKGjH7-221" value="" style="endArrow=none;dashed=1;html=1;dashPattern=1 3;strokeWidth=2;rounded=0;shadow=1;sketch=1;strokeColor=#000000;fontSize=15;" edge="1" parent="1">
          <mxGeometry width="50" height="50" relative="1" as="geometry">
            <mxPoint x="80" y="760" as="sourcePoint" />
            <mxPoint x="1120" y="760" as="targetPoint" />
          </mxGeometry>
        </mxCell>
        <mxCell id="Cu0Avm088U5us9jKGjH7-222" value="" style="endArrow=none;dashed=1;html=1;dashPattern=1 3;strokeWidth=2;rounded=0;shadow=1;sketch=1;strokeColor=#000000;fontSize=15;" edge="1" parent="1">
          <mxGeometry width="50" height="50" relative="1" as="geometry">
            <mxPoint x="80" y="1480" as="sourcePoint" />
            <mxPoint x="1120" y="1480" as="targetPoint" />
          </mxGeometry>
        </mxCell>
      </root>
    </mxGraphModel>
  </diagram>
</mxfile>
